<?xml version="1.0" encoding="UTF-8"?>
<svg id="Layer_2" data-name="Layer 2" xmlns="http://www.w3.org/2000/svg" viewBox="0 0 257.65 41.88">
  <g id="Layer_1-2" data-name="Layer 1">
    <g>
      <g>
        <path d="M257.65,21.13c0,11.45-9.28,20.73-20.73,20.73s-20.73-9.28-20.73-20.73S225.47.4,236.92.4s20.73,9.28,20.73,20.73ZM248.11,21.18c0-6.18-5.01-11.19-11.19-11.19s-11.19,5.01-11.19,11.19,5.01,11.19,11.19,11.19,11.19-5.01,11.19-11.19Z"/>
        <path d="M197.62,31.86c4.25,1.68,8.67,1.21,12.53-1.48l5.3,6.73c-3.97,3.45-8.93,4.79-14.01,4.77-10.29-.03-18.19-5.89-19.76-16.04s2.29-20.69,12.52-24.52c3.28-1.23,6.76-1.4,10.3-1.07,3.88.12,7.41,1.39,10.53,3.79l-4.43,7.61c-5.26-4.19-13.96-3.4-16.98,2-3.2,5.72-2.48,15.38,4.01,18.21Z"/>
      </g>
      <g>
        <path d="M153.57,9.87l.31,3.35v27.94s-10.41,0-10.41,0v-23.36s-.25-4.6-.25-4.6c-.29-4.99-7.24-5.02-12.25-3.34v31.3s-10.42,0-10.42,0V3.01c7.03-2.74,14.53-3.51,22.02-2.72,2.09.22,3.88,1.06,5.63,2.08,4.61-2,9.54-2.52,14.62-2.32,8.24.32,13.67,5.01,13.72,13.47v27.64s-10.52,0-10.52,0V14.6c-.14-2.57-1.51-4.41-3.9-5.32-2.71-.63-5.44-.4-8.54.59Z"/>
        <g>
          <path d="M99.56,41.15c-3.67,0-7-.32-10.42-.76-7.18-1.71-12.39-5.39-14.08-12.73-1.25-5.42-1.17-10.92,1.08-15.96C80.7,1.52,92.14-1.55,102.42.93c5.9,1.42,10.14,5.9,11.37,11.74.35,1.66.74,3.4.74,5.13l.02,23.38-14.99-.03ZM104.18,32.32l-.08-13.11c-.02-2.48-.68-5.1-2.06-7.06-1.7-2.41-4.41-3.17-7.23-3.13-4.61.07-8.33,3.19-9.32,7.72-1.32,6,.02,13.02,6.35,14.78,1.55.33,3.31.75,4.89.76l7.46.05Z"/>
          <g>
            <path d="M25.42,41.15c-3.77,0-7.21-.3-10.7-.79-6.78-1.63-12.01-5.21-13.75-12.09-1.34-5.3-1.42-10.71.59-15.78C5.86,1.65,17.89-1.73,28.49,1.01c5.94,1.53,9.9,6.22,11.06,12.08.31,1.66.62,3.3.63,5.02v23.06s-14.76-.02-14.76-.02ZM29.44,32.3l-.07-13.14c0-1.76-.44-3.78-1.04-5.39-1.25-3.37-4.53-4.82-7.97-4.77-4.65.07-8.36,3.03-9.46,7.61-.68,2.82-.63,5.87.14,8.68,1.59,5.83,7.16,7.06,12.99,7.03l5.41-.02Z"/>
            <path d="M56.54,20.06l-.03,21.11h-10.72s.08-21.1.08-21.1c.03-6.84,2.18-13.55,8.22-16.97C60.41-.3,67.74.02,75.15.79l-2.54,9.24-5.36-.87c-2.81.13-5.44.68-7.53,2.74s-3.17,5.04-3.18,8.15Z"/>
          </g>
        </g>
      </g>
    </g>
  </g>
</svg>