<?xml version="1.0" encoding="UTF-8"?>
<svg id="Layer_2" data-name="Layer 2" xmlns="http://www.w3.org/2000/svg" viewBox="0 0 163.62 98.29">
  <g id="Layer_1-2" data-name="Layer 1">
    <g>
      <g>
        <path d="M110.33,1.47l5.48-.09c2.73-.04.67,4.32-.26,7.28l-8.47,27.08-3.58,11.38c-.49,1.54-1.06,2.83-3.04,2.8l-5.15-.09c-1.72-.03-2.48-1.11-2.84-2.66l-3.88-16.71-3.17-12.92c-.39-1.58-.23-3.4-1.73-4.67-1.44,4.17-2.07,8.11-3.04,12.16l-5.03,20.95c-.26,1.1-.18,3.46-1.71,3.67-2.53.34-5.3.05-7.92-.1-.83-.05-1.32-1.43-1.53-2.14l-9.16-30.26-3.86-12.61c-.22-.71-.35-2.54.43-2.9,1.82-.61,3.97-.05,5.89-.24s2.73,1.02,3.15,2.67l2.17,8.45,3.06,12.72c.99,4.11,2.36,7.94,3.05,12.14.09.52.5.84.85.83,1.16-.04,1.52-3.44,2.12-5.98l3.22-13.47,3.17-14.6c.34-1.58,1.31-2.77,3.08-2.76l5.31.02c1.41,0,2.15,1.05,2.45,2.34l5.73,24.82c.75,3.24,1.7,6.14,1.93,9.43.04.58,1.37,1.14,1.48.74l5.44-20.23,3.52-13.93c.35-1.39,1.04-3.07,2.84-3.1Z"/>
        <path d="M14.12,49.6c-5.25-2.35-7.37-7.56-7.41-12.86-.03-4.66,1.43-8.24,5.04-11.27,3.19-2.67,7.28-3.71,11.59-4.05,5.97-.47,12.14,1.71,13.41.84.61-.42.92-8.67-2.1-11.94-2.44-2.64-6.51-2.87-9.99-2.77-7.08.21-12.68,4.26-14.26,3.03-.66-.52-.68-5.31.61-6.4C14.26,1.44,24.98-.65,30.11.21c6.17,1.03,11.81,2.2,14.18,8.75.92,2.54,1.68,5.31,1.7,8.16l.14,21.33c.03,3.84,4.49,6.8,1.13,9.14l-2.5,1.74c-1.51,1.05-3.24.75-4.2-.8l-2.3-3.71c-1.54-2.48-3.52,4.42-12.52,5.86-3.89.62-7.93.58-11.64-1.08ZM35.99,37.39c1.35-2.57,1.21-5.76.88-8.5-3.69-1.14-7.08-1.01-10.82-1.15s-7.5,1.09-9.2,4.76c-1.27,2.76-1.01,6.8,1.02,9.16,3.89,4.53,14.6,2.41,18.11-4.27Z"/>
        <path d="M154.71,43.51c-6.4,9.69-21.24,9.16-31.29,4.92-3.51-1.48-2.95-6.44-2.11-7.16.47-.4,1.61-.6,2.31-.3,5.98,2.55,14.07,4.43,19.82,2.03,1.88-.79,3.31-2.01,3.9-3.54.77-2.02.71-4.21-.68-5.83-1.08-1.27-2.7-2.23-4.3-2.76l-8.54-2.83c-7.02-2.32-12.24-5.58-12.12-13.77.07-4.69,2.03-8.71,6.24-11.1s8.95-3.59,13.7-3.04c3.62.42,7,1.04,10.28,2.65,2.66,1.3,3.34,5.1,1.26,7.26l-5.2-1.23c-4.14-.98-6.88-1.39-11.72-.8-3.49.42-6.54,3.52-5.61,7.18.66,2.63,3.29,4.1,5.66,4.92l12.15,4.21c1.96.68,3.47,1.83,5,3.3,4.2,4.02,4.33,11.21,1.25,15.89Z"/>
      </g>
      <g>
        <path d="M148.61,74.43c2.94,3.31-6.72,7.79-11.09,10.31l-3.81,2.2c-1.97.61-3.61,1.55-5.5,2.33-5.43,2.25-10.8,3.85-16.41,5.39l-9.09,1.94-5.98.86c-.96.14-1.89.78-2.98.5-1.15-.29-2.2.33-3.25.32l-18.84-.04c-1.54,0-3.12-.08-4.64-.42l-3.15-.7c-1.12-.25-2.36-.14-3.53-.37-10-1.95-19.6-4.59-28.83-8.86-8.61-3.99-16.79-8.38-24.06-14.36l-5.88-4.84c-1.25-1.03-2.07-2.43-1.2-4.01.15-.28,1.11-.35,1.45-.16,3.77,2.09,7.23,4.09,11.17,6.01,12.61,6.15,25.97,10.45,39.79,13.14,1.05.2,1.73.35,2.71.49l7.57,1.12c3.04.45,8.39,1.18,10.04.86,1.26-.24,2.42.33,3.59.32l12.1-.06,6.08-.26c12.97-.98,25.63-3.41,37.88-7.56l3-1.02,8.26-3.16c1.4-.54,3.32-1.44,4.62.02Z"/>
        <path d="M154.74,77.6c.84-2.45,1.31-5.24.29-7.51-.67-1.11-3-1.78-4.25-1.77l-8.62.08-4.65.48c-1.38.14-2.83,1.18-4.35.27-.44-.26-.62-.78-.62-1.26.02-1.98,4.24-3.09,6.24-4.03,5.08-2.39,14.73-3.01,20.59-1.64,1.49.35,3.69.41,4.02,2.38,1.26,7.58-2.35,16.83-6.84,23.24-1.76,2.51-5.39,5.66-6.01,3.94-.57-1.57.43-3.08.91-4.5l3.3-9.68Z"/>
      </g>
    </g>
  </g>
</svg>