<?xml version="1.0" encoding="UTF-8"?>
<svg id="Layer_2" data-name="Layer 2" xmlns="http://www.w3.org/2000/svg" viewBox="0 0 274.58 69.14">
  <g id="Layer_1-2" data-name="Layer 1">
    <g>
      <g>
        <path d="M26.83,7.99c8.1,8.24,9.94,20.43,4.65,30.78-3.76,7.36-11.94,13.39-20.36,14.05-3.58.28-7.07.12-11.1.14V.1c3.56,0,6.91-.22,10.33.07,6.21.53,12.14,3.4,16.49,7.82Z"/>
        <g>
          <path d="M76.86,52.94c-6.53-.05-12.21.67-18.24-1.99-10.84-4.78-17.26-15.54-15.93-27.42S53.9,1.54,66.29.18c3.49-.38,6.89-.04,10.57-.09v52.85Z"/>
          <path d="M137.24,34.86l-1.14,3.07c-4.14,8.19-12.14,14.42-21.65,14.9l-21.59.11V.11s21.57.03,21.57.03c3.61,0,6.91,1.64,10.11,2.93l3.23,2.11c9.28,6.83,13.07,18.7,9.46,29.68ZM121.16,42.71c5.55-3.47,9.12-8.84,9.39-15.41.39-9.47-6.78-18.07-16.39-19.02-4.42-.44-8.63.03-13.19-.1v36.86s12.35-.05,12.35-.05c2.74-.01,5.29-1.16,7.84-2.28Z"/>
        </g>
      </g>
      <path d="M255.98,57.97l-2.57,5.72c-1.61,3.58-5.72,5.55-9.64,5.45-1.85-.05-3.49-.93-5.08-1.61l-.96-.41c-.27-.11-.14-.94-.02-1.21l2.75-6.08c1.65.49,3.67,1.41,5.05.09l1.68-1.61,3.01-6.8c.33-.74.84-1.58.47-2.43l-14.48-32.48,8.68-.26,10.18,22.82c.12.27.82-.31.95-.62l9.2-20.73c.22-.5.57-1.1.86-1.34.34-.28,1.38-.08,1.82-.08l6.69.03-3.97,8.98-2.77,6.18-2.87,6.4-5.38,12-3.61,7.98Z"/>
      <path d="M179.43,34.74c0,10.13-8.23,18.34-18.39,18.34s-18.39-8.21-18.39-18.34,8.23-18.34,18.39-18.34,18.39,8.21,18.39,18.34ZM172.14,34.69c0-6.1-4.96-11.05-11.08-11.05s-11.08,4.95-11.08,11.05,4.96,11.05,11.08,11.05,11.08-4.95,11.08-11.05Z"/>
      <g>
        <path d="M231.03,47.7c-6.29,6.35-15.91,7-23.39,2.33l-.11,2.33c-.02.31-.77.84-1.1.83l-7.01-.11V.1s8.11-.04,8.11-.04l.05,19.53c7.25-4.78,16.45-4.06,22.5,1.32,7.97,7.08,8.6,19.05.95,26.78ZM229.08,34.69c0-6.1-4.96-11.05-11.08-11.05s-11.08,4.95-11.08,11.05,4.96,11.05,11.08,11.05,11.08-4.95,11.08-11.05Z"/>
        <rect x="184.58" y=".05" width="8.13" height="53.12"/>
      </g>
    </g>
  </g>
</svg>