<?xml version="1.0" encoding="UTF-8"?>
<svg id="Layer_2" data-name="Layer 2" xmlns="http://www.w3.org/2000/svg" viewBox="0 0 335.73 31.36">
  <g id="Layer_1-2" data-name="Layer 1">
    <g>
      <path d="M148.73.22l-12.05,31.08h-15.01s-9.1-21.89-9.1-21.89l-7.64,21.8-11.03-.04L105.86.2l14.22-.05c1.02.25,1.91,2.23,2.3,3.18l7.66,18.57L137.69.14l11.04.08Z"/>
      <g>
        <g>
          <path d="M15.39,21.08l-3.89,10.17-11.5.06L7.16,12.87h35.84c-1,3.21-1.79,5.3-2.89,8.2l-24.71.02Z"/>
          <path d="M47.28,8.54H8.9s1.41-3.86,1.41-3.86C11.07,2.63,13.04.17,15.59.17l34.83-.03-3.13,8.4Z"/>
        </g>
        <path d="M72.42,10.32l-18.37,20.88c-4.35.14-8.42.17-13.15-.12l19.85-21.38,5.73-6.05c1.19-1.26,2.77-3.42,4.84-3.44l8.93-.11c.61,0,2.02,1.12,2.12,1.73l4.88,29.41-11.45.09-3.36-21Z"/>
      </g>
      <path d="M175.99,10.35l-18.38,20.87-13.08-.06,8.31-9.13L171.79,1.8c.86-.92,2.75-1.65,3.88-1.65l7.66-.02c1.68,0,2.56,1.2,2.82,2.78l4.64,28.34-11.44.06-3.36-20.95Z"/>
      <path d="M302.96,23.42l23.63.05-2.91,7.88-28.89-.06c-2.16,0-5.16-1.32-6.13-3.12-1.32-2.46-.42-5.49.54-7.86l4.98-12.34C296.55,2.15,303.58,0,310.21,0h25.52s-3.04,8-3.04,8l-23.92.09c-1.91,0-4.55,2.31-5.19,3.95l-3.06,7.85c-.22.56-.12,1.94.21,2.39s1.53,1.14,2.24,1.14Z"/>
      <g>
        <path d="M279.6,19.64l-25.74.02-1.46,3.74,25.7.06-3.11,7.86-36.81-.04L250.19.17h36.85s-2.92,7.83-2.92,7.83l-25.49.02c-.72.92-1.13,1.94-1.52,3.75l25.51.08-3.02,7.8Z"/>
        <polygon points="216.08 31.27 204.37 31.28 213.18 8.21 199.03 8.07 202.12 .14 242.15 .16 239.27 8.13 225.08 8.15 216.08 31.27"/>
      </g>
    </g>
  </g>
</svg>