<?xml version="1.0" encoding="UTF-8"?>
<svg id="Layer_2" data-name="Layer 2" xmlns="http://www.w3.org/2000/svg" viewBox="0 0 310.35 44.84">
  <g id="Layer_1-2" data-name="Layer 1">
    <g>
      <path d="M1.45,41.67h276.73c.78-1.07,1.2-1.94,1.75-3.42h-17.53c-1.85,0-3.77-.92-4.74-2.33-.85-1.24-1.13-3.81-.42-5.34l5.72-12.35c1.71-3.7,6.4-7.73,10.81-7.76l36.58-.22-10.51,23.3c-2.49,5.51-6.27,10.01-12.63,11.28H0s1.45-3.17,1.45-3.17ZM281.6,34.89l9.7-21.25-8.88.02-9.71,21.3,8.9-.07Z"/>
      <path d="M229.6,38.18l11.11-24.51-8.78-.04-11.34,24.65-17.43-.11,12.75-27.91h35.3c1.78-.01,3.86.87,4.54,1.97,1.07,1.7.98,3.63.65,5.54l-9.36,20.47-17.44-.07Z"/>
      <path d="M81.49,35.26c-2.07-3.86,3.97-17.49,14.15-18.17,6.22-.41,12.21-.1,18.39-.19l1.31-3.26-21.42-.03c.22-1.14.62-2.19,1.24-3.36l31.31.03c1.56,0,3.48,1.05,4.1,2.05.77,1.25,1.21,3.88.55,5.32l-9.36,20.59-36.07-.02c-1.81,0-3.55-1.77-4.19-2.97ZM105.74,34.92l6.69-14.66h-8.87s-6.65,14.7-6.65,14.7l8.83-.03Z"/>
      <path d="M147.49,34.84l8.91.07,2.98-6.79,17.49.08c-2.13,4.93-6.74,9.79-12.39,9.83l-27.71.2c-1.64.01-3.75-1.1-4.39-2.21-.81-1.42-1.1-3.88-.4-5.45l4.58-10.21c2.07-4.6,6.45-9.6,12.03-9.87,9.73-.48,19.18-.18,28.87-.17,2.02,0,3.78,1.67,4.21,3.44.56,2.28-.04,4.55-1.28,6.48l-17.24-.02,2.78-6.58-8.75-.06-9.71,21.27Z"/>
      <polygon points="196.54 38.22 178.98 38.23 191.73 10.28 209.23 10.26 196.54 38.22"/>
      <polygon points="210.96 6.74 193.3 6.78 196.43 .01 213.89 .02 210.96 6.74"/>
      <g>
        <path d="M71.16,38.2l-17.45.05-2.79-9.02c-.13-.41-.85-1.38-1.08-1.12l-.99,1.11-3.94,9.03-17.57-.06L44.77,0l35.26.02c1.77,0,3.65,1.04,4.41,2.1.99,1.39,1.4,3.72.74,5.25l-3.98,9.2c-2.46,5.69-6.6,10.43-13.07,11.49l3.02,10.14ZM59.86,24.76l9.68-21.3-8.83.03-9.72,21.23,8.88.03Z"/>
        <polygon points="20.66 38.19 3.13 38.22 15.9 10.28 33.46 10.28 20.66 38.19"/>
        <polygon points="35.08 6.75 17.55 6.78 20.46 .05 38.08 0 35.08 6.75"/>
      </g>
    </g>
  </g>
</svg>