<?xml version="1.0" encoding="UTF-8"?>
<svg id="Layer_2" data-name="Layer 2" xmlns="http://www.w3.org/2000/svg" viewBox="0 0 264.57 80.14">
  <g id="Layer_1-2" data-name="Layer 1">
    <g>
      <path d="M254.91,34.6c-.04-5.16-3.49-8.65-8.42-8.68-4.15-.03-9.29,2.55-9.32,7.27l-.19,23.41-9.58.14-.16-8.14.12-4.77.07-12.39-.02-8.55.15-21.76h9.41s.12,19.48.12,19.48c6.92-5.71,15.87-5.63,22.4-.77,2.72,2.96,5.07,6.93,5.07,11.29v25.59s-9.49-.13-9.49-.13l-.15-22.01Z"/>
      <path d="M159.17,48.15c4.67,1.55,10.09-.81,14.07-4.76l6.65,6.72c-5.27,5.65-12.46,7.75-19.56,7.39-11.19-.57-18.82-8.81-18.94-19.85s6.91-19.78,17.6-21.11c8.92-1.11,17.1,2.61,20.92,10.84,1.92,4.15,2.83,8.41,1.92,13.21l-29.95.03c.71,3.93,3.71,6.35,7.29,7.54ZM171.89,33.07c-1.22-5.34-5.06-7.35-8.68-7.89-5.26-.78-11.35,2.89-11.15,8.03l19.83-.14Z"/>
      <path d="M55.8,37.09c0,11.57-9.38,20.96-20.96,20.96s-20.96-9.38-20.96-20.96,9.38-20.96,20.96-20.96,20.96,9.38,20.96,20.96ZM46.22,37.13c0-6.28-5.09-11.38-11.38-11.38s-11.38,5.09-11.38,11.38,5.09,11.38,11.38,11.38,11.38-5.09,11.38-11.38Z"/>
      <path d="M195.42,36.63c-.23,5.98,3.25,10.88,9.44,11.84,4.19.64,8.25-1.49,11.31-5.22l7.02,7.09c-4.89,4.95-11.57,8.2-18.39,7.64s-12.88-4.38-16.14-9.54c-4-6.33-4.27-13.85-1.22-20.44s9.87-10.95,17.01-11.41,13.9,1.7,18.62,7.6l-6.8,6.79c-5.08-6.2-13.53-6.71-18.49-1.18-1.81,2.02-2.26,4.33-2.36,6.83Z"/>
      <path d="M134.65,34.07l-.08,19.03c.41.89.59,3.22-.4,3.57l-9.08-.07-.02-30.45-5-.14-.07-8.29,5.08-.16.03-12.3,8.56-.03c.81,0,1.07,1.75,1.06,2.47l-.07,7.25c0,.76.5,2.64,1.26,2.66l4.65.11-.07,8.25-5.73.34-.12,7.77Z"/>
      <rect x="0" y="1.12" width="10.04" height="56"/>
      <g>
        <path d="M98.44,26.34c.74,1.96,1.9,4.25,2.42,6.45,1.69,7.05-.66,14.88-5.98,19.58-4.92,4.35-11.2,6.43-17.39,5.46-8.98-1.41-16.07-7.65-17.6-16.58-1.18-6.85.6-13.71,5.3-18.56s11.35-7.07,18.38-6.14c1.09.14,3,.92,4.06.94l13.44.2.06,7.62-2.71,1.04ZM91.97,37.09c0-6.27-5.08-11.36-11.36-11.36s-11.36,5.08-11.36,11.36,5.08,11.36,11.36,11.36,11.36-5.08,11.36-11.36Z"/>
        <path d="M101.44,59.24c.29,9.99-6.42,17.98-15.93,20.28-7.78,1.89-16.04-.68-21.15-6.56-3.38-3.89-4.8-8.52-4.75-13.74h9.64c.25,5.83,3.69,9.77,8.53,11.08s11.04-.9,12.87-5.97l1.87-5.19,8.93.09Z"/>
      </g>
      <g>
        <rect x="105.49" y="17.64" width="9.54" height="39.48"/>
        <path d="M117.29,6.26c.39,3.45-2.38,6.11-5.39,6.58-3.21.5-6.6-1.16-7.36-4.62s.94-7.3,4.43-8.03c4.22-.89,7.8,1.53,8.32,6.08Z"/>
      </g>
    </g>
  </g>
</svg>