<?xml version="1.0" encoding="UTF-8"?>
<svg id="Layer_2" data-name="Layer 2" xmlns="http://www.w3.org/2000/svg" viewBox="0 0 285.07 58.35">
  <g id="Layer_1-2" data-name="Layer 1">
    <g>
      <g>
        <path d="M53.98,11.59l-16.23,10.21h-9.01S12.62,11.63,12.62,11.63l-1.03.09c-.22.02-.37.62-.43.89l-.07,17.21-11.09-.06V.08S10.8.01,10.8.01l22.44,14.46L55.71,0l10.74.11.03,28.68c0,.32-.6,1.1-1,1.1l-10.16-.12.07-17.08-.23-.87c-.05-.19-.68-.2-1.18-.23Z"/>
        <g>
          <path d="M210.54,29.82h-66.39s-.02-6.97-.02-6.97l37.62-14.05c.22-.08.61-.39.68-.55.09-.23-.34-.62-.66-.82l-37.58.07-.02-7.46h66.25s.16,7.31.16,7.31l-37.41,13.5-.65.63c-.18.17.42.68.69.8l37.25.02.07,7.52Z"/>
          <path d="M270.37,26.01h-38.3s-2.64,3.87-2.64,3.87l-12.5-.27L235.38.06l31.54-.03,17.9,28.54.23.77c.06.22-.64.51-.95.51h-11.29s-2.44-3.83-2.44-3.83ZM265.42,18.44l-6.72-10.95-15.13.03-6.64,10.92h28.49Z"/>
        </g>
      </g>
      <rect x=".02" y="35.92" width="285.04" height="1.32"/>
      <path d="M282.7,52.96l-5.09.02.03-2.15h7.38s.04,4.58.04,4.58c.02,1.66-1.26,2.92-2.91,2.92h-13.18c-1.66,0-2.91-1.27-2.91-2.92l.02-9.33c0-1.63,1.38-2.77,2.87-2.77h15.98s.01,2.11.01,2.11h-15.29c-.81,0-1.29.89-1.29,1.66v7.65c0,.46.59,1.51,1.16,1.51l12.64-.03c.61-1.03.69-2.31.52-3.24Z"/>
      <path d="M16.29,54.68c0-1.01-.53-1.84-1.62-1.84H2.29s0,5.47,0,5.47l-2.27-.1v-12.14c.02-1.63,1.38-2.79,2.94-2.78l11.42.03c2.01,0,3.53,1.49,4.21,2.95.86,1.86.2,3.71-.97,5.17.36.61.86,1.65.86,2.19v4.61s-2.21.03-2.21.03l.03-3.6ZM14.46,50.69c1.71,0,2.43-1.8,2.27-3-.17-1.27-1.2-2.27-2.67-2.27H3.61c-.49-.01-1.35.8-1.35,1.27l.03,4.05,12.15-.05Z"/>
      <path d="M231.82,58.1c-1.36.58-2.36.08-3.26-.68l-13.37-11.26-.14,12.04-2.17.05v-14.95s2.53.27,2.53.27l14.17,11.94.06-11.79c.39-.51,1.68-.53,2.17-.18v14.56Z"/>
      <path d="M110.11,56.23h15.06c.28.48.28,1.61-.01,2.09h-15.98c-1.58-.01-2.75-1.45-2.75-2.94v-8.95c-.01-1.8,1.29-3.14,3.09-3.14h15.62s.28,2.11.28,2.11h-15.23c-.54,0-1.37.81-1.37,1.27v8.1c0,.53.6,1.46,1.3,1.46Z"/>
      <path d="M68.56,54.05l-11.61-.03-1.77,4.18-1.85-.06,5.24-12.5c.73-1.73,3.09-2.46,4.66-2.32,1.82.17,3.3,1.4,4.03,3.17l4.8,11.68-1.91.03-1.59-4.14ZM67.7,52.19l-1.75-4.47c-.5-1.29-1.41-2.23-2.83-2.49-.87-.16-2.64.51-3.03,1.46l-2.29,5.45,9.9.04Z"/>
      <rect x="168.09" y="43.29" width="2.11" height="15.04"/>
      <path d="M126.83,29.84h-42.89s-11.89-7.24-11.89-7.24l-.02-15.29L83.74.02h43.14s11.67,7.16,11.67,7.16l.02,15.4-11.74,7.27ZM123.04,22.28l3.63-2.3.03-10.2-3.82-2.27h-35.33s-3.67,2.36-3.67,2.36l.03,10.19,3.83,2.25,35.29-.02Z"/>
    </g>
  </g>
</svg>