<?xml version="1.0" encoding="UTF-8"?>
<svg id="Layer_2" data-name="Layer 2" xmlns="http://www.w3.org/2000/svg" viewBox="0 0 310.35 65.24">
  <g id="Layer_1-2" data-name="Layer 1">
    <g>
      <path d="M298.37,24.22l-265.38.02v40.94s-32.99,0-32.99,0V.02S297.6,0,297.6,0c6.37,0,11.81,4.12,12.66,10.64.91,6.81-4.55,13.58-11.88,13.58ZM261.36,8.27h-114.08s-114.24-.03-114.24-.03l-.02,7.73h228.69c2.18,0,3.71-2.13,3.66-3.91-.07-2.06-1.55-3.8-4-3.8Z"/>
      <g>
        <g>
          <polygon points="183.26 52.67 160.2 52.67 160.2 57.63 183.26 57.63 183.25 65.24 141.18 65.24 141.18 31.18 183.25 31.18 183.27 39.41 160.2 39.42 160.22 44.4 183.26 44.4 183.26 52.67"/>
          <polygon points="279.57 57.62 279.63 65.24 241.21 65.24 241.2 31.18 260.28 31.18 260.27 57.63 279.57 57.62"/>
          <polygon points="234.61 57.63 234.63 65.24 196.24 65.24 196.24 31.18 215.33 31.18 215.32 57.63 234.61 57.63"/>
          <rect x="287.56" y="31.18" width="19.06" height="34.06"/>
        </g>
        <g>
          <path d="M129.17,65.23h-21.38s-5.72-10.94-5.72-10.94l-6.28-.04v10.98s-19.06,0-19.06,0V31.17s40.77.02,40.77.02c1.63,0,3.07.65,4.49,1.11,6.39,2.65,9.07,10,5.81,16.09-1.1,2.1-2.81,3.6-4.97,4.65l6.33,12.19ZM107.35,45.9c1.94-.01,3.15-2.25,2.98-3.82s-1.51-3.24-3.36-3.24l-11.18-.04v7.19s11.55-.08,11.55-.08Z"/>
          <rect x="43.98" y="31.18" width="19.06" height="34.06"/>
        </g>
      </g>
    </g>
  </g>
</svg>