<?xml version="1.0" encoding="UTF-8"?>
<svg id="Layer_2" data-name="Layer 2" xmlns="http://www.w3.org/2000/svg" viewBox="0 0 263.94 59.02">
  <g id="Layer_1-2" data-name="Layer 1">
    <g>
      <g>
        <g>
          <path d="M261.1,44.1c-1.71,1.75-4.02,3.08-6.57,3.08l-43.16.05v-3.78s38.49,0,38.49,0c3.53,0,6.28-2.61,6.43-6.1.14-3.2-2.5-6.44-6.02-6.45l-33.25-.05c-3.15-.11-5.65-2.55-5.66-5.74v-13.31s51.15,0,51.15,0v3.78s-43.52,0-43.52,0v8.99c.02,1.44,1.29,2.43,2.69,2.5l32.46.04c4.77,0,8.84,3.71,9.63,8.27.56,3.26-.34,6.33-2.67,8.72Z"/>
          <path d="M169.32,47.23h-22.28s-.03-3.78-.03-3.78h18.5c3.3,0,5.86-2.57,5.86-5.85v-16.26c.02-5.36,4.35-9.55,9.73-9.54h22.58s-.01,3.77-.01,3.77l-18.99.04c-3.14,0-5.62,2.58-5.63,5.66l-.07,16.88c-.02,5.16-4.49,9.08-9.64,9.07Z"/>
        </g>
        <path d="M96.97,47.22v-10.84c.15-5.27,4.4-9.32,9.68-9.32l29.54-.03c3.3,0,5.72-2.78,5.65-5.83-.07-3.2-2.64-5.63-5.93-5.63h-38.93s.01-3.79.01-3.79l43.18.05c5.26,0,9.34,4.48,9.33,9.49s-4.16,9.5-9.45,9.5l-29.69.03c-3.19,0-5.56,2.43-5.8,5.52v10.83s-7.6,0-7.6,0Z"/>
      </g>
      <g>
        <path d="M46.35,32.85V13.73c0-.61-.17-1.22-.3-1.77-.29-1.23-1.26-2.11-2.51-2.31-1.38-.21-2.15,1.36-2.18,3v46.37s-12.56-3.93-12.56-3.93V0c5.24,1.04,10.17,2.46,15.15,4.01,2.65.8,5.09,1.69,7.55,2.91,4.59,2.39,7.36,5.46,8.36,10.61.78,4,.83,9.52-1.29,13.03-2.8,4.52-7.75,4.48-12.23,2.27Z"/>
        <g>
          <path d="M63.93,43.87l1.66-.93c.16-.09.31-.53.3-.71-.06-.83-1.98-1.25-3.3-1.31-1.85-.08-3.57.16-5.34.72l-13.49,4.73v-7.51c4.19-1.41,8.46-2.2,12.9-2.39,5.75-.14,11.32.8,16.6,2.96,1.22.5,2.26,1.17,3.09,2.14,1.14,1.32.84,3.04-.45,4.14s-2.59,1.76-4.13,2.51l-28.02,10v-7.2s20.17-7.13,20.17-7.13Z"/>
          <path d="M20,47.36l6.36-2.26v6.42c-7.75,1.54-15.05.72-22.41-1.94-1.3-.47-2.39-1.22-3.25-2.25-1.16-1.38-.81-3.23.62-4.29,1.81-1.35,3.8-2.16,5.94-3.01l19.11-6.75v7.25s-13.22,4.7-13.22,4.7l-1.34.75c-.18.1-.36.56-.35.75.11,1.53,5.46,1.71,8.54.62Z"/>
        </g>
      </g>
    </g>
  </g>
</svg>